<?xml version="1.0" encoding="UTF-8" standalone="no"?>
<!-- Created with Inkscape (http://www.inkscape.org/) -->

<svg
   xmlns:dc="http://purl.org/dc/elements/1.1/"
   xmlns:cc="http://creativecommons.org/ns#"
   xmlns:rdf="http://www.w3.org/1999/02/22-rdf-syntax-ns#"
   xmlns:svg="http://www.w3.org/2000/svg"
   xmlns="http://www.w3.org/2000/svg"
   xmlns:sodipodi="http://sodipodi.sourceforge.net/DTD/sodipodi-0.dtd"
   xmlns:inkscape="http://www.inkscape.org/namespaces/inkscape"
   width="30mm"
   height="30mm"
   viewBox="0 0 30 30"
   version="1.1"
   id="svg981"
   inkscape:version="0.92.4 (5da689c313, 2019-01-14)"
   sodipodi:docname="greatgrandtutor.svg">
  <defs
     id="defs975" />
  <sodipodi:namedview
     id="base"
     pagecolor="#ffffff"
     bordercolor="#666666"
     borderopacity="1.0"
     inkscape:pageopacity="0.0"
     inkscape:pageshadow="2"
     inkscape:zoom="1.979899"
     inkscape:cx="-56.985692"
     inkscape:cy="57.908485"
     inkscape:document-units="mm"
     inkscape:current-layer="layer1"
     showgrid="false"
     fit-margin-top="0"
     fit-margin-left="0"
     fit-margin-right="0"
     fit-margin-bottom="0"
     inkscape:window-width="3200"
     inkscape:window-height="1695"
     inkscape:window-x="-13"
     inkscape:window-y="-13"
     inkscape:window-maximized="1" />
  <metadata
     id="metadata978">
    <rdf:RDF>
      <cc:Work
         rdf:about="">
        <dc:format>image/svg+xml</dc:format>
        <dc:type
           rdf:resource="http://purl.org/dc/dcmitype/StillImage" />
        <dc:title></dc:title>
      </cc:Work>
    </rdf:RDF>
  </metadata>
  <g
     inkscape:label="Layer 1"
     inkscape:groupmode="layer"
     id="layer1"
     transform="translate(-40.501457,-31.512658)">
    <g
       id="g2230"
       transform="translate(-68.832163)">
      <path
         inkscape:transform-center-x="1.5489159"
         inkscape:transform-center-y="-4.776091"
         sodipodi:nodetypes="cccccc"
         inkscape:connector-curvature="0"
         id="path4652-2-0-0-7-2"
         d="m 120.62914,43.653267 c -5.48151,0.0855 -4.25687,-5.83379 -4.36767,-9.71652 3.46693,2.11996 8.87758,5.48768 4.89741,9.38044 -1.03923,-2.89018 -1.5832,-4.2379 -3.23993,-6.35991 1.19882,2.47289 1.34539,3.1677 2.71016,6.69601 z"
         style="fill:#007800;fill-opacity:1;stroke:none;stroke-width:0.47245178px;stroke-linecap:butt;stroke-linejoin:miter;stroke-opacity:1" />
      <path
         inkscape:transform-center-x="1.3636668"
         inkscape:transform-center-y="-1.7502638"
         sodipodi:nodetypes="cccccc"
         inkscape:connector-curvature="0"
         id="path4652-2-0-6-1-7-7"
         d="m 116.1754,47.792977 c -2.22244,0.60664 -2.43975,-2.06525 -2.95462,-3.72285 1.66865,0.55089 4.28002,1.4361 3.12974,3.52329 -0.77298,-1.13438 -1.15761,-1.65716 -2.08917,-2.39713 0.78749,0.93839 0.93125,1.22183 1.91406,2.5967 z"
         style="fill:#007800;fill-opacity:1;stroke:none;stroke-width:0.2046755px;stroke-linecap:butt;stroke-linejoin:miter;stroke-opacity:1" />
      <path
         sodipodi:nodetypes="ccccccccscccc"
         inkscape:connector-curvature="0"
         id="path850-6-6-0-8-6"
         d="m 121.68744,61.115787 c 1.32292,-5.29167 -3.76795,-8.43359 -5.29163,-13.22917 h -3e-5 c 2.02975,1.16182 3.27297,2.90947 4.7625,3.96875 1.19064,-2.64583 -0.26459,-5.29167 0,-7.9375 2.1862,1.03458 2.38117,8.73125 3.17534,9.78958 0.79417,-1.05833 0.98846,-8.755 3.17466,-9.78958 0.26458,2.64583 -1.19132,5.29167 0,7.9375 2.08983,-1.41177 3.11162,-2.94399 4.76318,-3.96875 h -3e-5 c -1.52368,4.79558 -6.61455,7.9375 -5.29163,13.22917 -0.66146,0.26458 -1.65365,0.39687 -2.64618,0.39687 -0.99253,0 -1.98472,-0.13229 -2.64618,-0.39687 z"
         style="opacity:1;fill:#784421;fill-opacity:1;stroke:none;stroke-width:0.26458332px;stroke-linecap:butt;stroke-linejoin:miter;stroke-opacity:1" />
      <path
         inkscape:transform-center-x="1.5489159"
         inkscape:transform-center-y="-4.776091"
         sodipodi:nodetypes="cccccc"
         inkscape:connector-curvature="0"
         id="path4652-2-0-0-7-2-0"
         d="m 128.03741,43.653267 c 5.48151,0.0855 4.25687,-5.83379 4.36767,-9.71652 -3.46693,2.11996 -8.87758,5.48768 -4.89741,9.38044 1.03923,-2.89018 1.5832,-4.2379 3.23993,-6.35991 -1.19882,2.47289 -1.34539,3.1677 -2.71016,6.69601 z"
         style="fill:#007800;fill-opacity:1;stroke:none;stroke-width:0.47245178px;stroke-linecap:butt;stroke-linejoin:miter;stroke-opacity:1" />
      <path
         inkscape:transform-center-x="1.3636668"
         inkscape:transform-center-y="-1.7502638"
         sodipodi:nodetypes="cccccc"
         inkscape:connector-curvature="0"
         id="path4652-2-0-6-1-7-7-7"
         d="m 132.49184,47.792977 c 2.22244,0.60664 2.43975,-2.06525 2.95462,-3.72285 -1.66865,0.55089 -4.28002,1.4361 -3.12974,3.52329 0.77298,-1.13438 1.15761,-1.65716 2.08917,-2.39713 -0.78749,0.93839 -0.93125,1.22183 -1.91406,2.5967 z"
         style="fill:#007800;fill-opacity:1;stroke:none;stroke-width:0.2046755px;stroke-linecap:butt;stroke-linejoin:miter;stroke-opacity:1" />
    </g>
  </g>
</svg>
