<?xml version="1.0" encoding="UTF-8" standalone="no"?>
<!-- Created with Inkscape (http://www.inkscape.org/) -->

<svg
   xmlns:dc="http://purl.org/dc/elements/1.1/"
   xmlns:cc="http://creativecommons.org/ns#"
   xmlns:rdf="http://www.w3.org/1999/02/22-rdf-syntax-ns#"
   xmlns:svg="http://www.w3.org/2000/svg"
   xmlns="http://www.w3.org/2000/svg"
   xmlns:sodipodi="http://sodipodi.sourceforge.net/DTD/sodipodi-0.dtd"
   xmlns:inkscape="http://www.inkscape.org/namespaces/inkscape"
   width="27.774639mm"
   height="23.176081mm"
   viewBox="0 0 27.774639 23.176081"
   version="1.1"
   id="svg8"
   inkscape:version="0.92.4 (5da689c313, 2019-01-14)"
   sodipodi:docname="grandtutors.svg">
  <defs
     id="defs2">
    <inkscape:path-effect
       effect="roughen"
       id="path-effect4650"
       is_visible="true"
       method="segments"
       max_segment_size="1"
       segments="2"
       displace_x="1;1"
       displace_y="1;1"
       global_randomize="1;1"
       handles="along"
       shift_nodes="true"
       fixed_displacement="false"
       spray_tool_friendly="false" />
    <inkscape:path-effect
       effect="powerstroke"
       id="path-effect943"
       is_visible="true"
       offset_points="0,0.13229166"
       sort_points="true"
       interpolator_type="CubicBezierJohan"
       interpolator_beta="0.2"
       start_linecap_type="zerowidth"
       linejoin_type="extrp_arc"
       miter_limit="4"
       end_linecap_type="zerowidth" />
    <inkscape:path-effect
       effect="bspline"
       id="path-effect935"
       is_visible="true"
       weight="33.333333"
       steps="2"
       helper_size="0"
       apply_no_weight="true"
       apply_with_weight="true"
       only_selected="false" />
    <inkscape:path-effect
       effect="spiro"
       id="path-effect931"
       is_visible="true" />
  </defs>
  <sodipodi:namedview
     id="base"
     pagecolor="#ffffff"
     bordercolor="#666666"
     borderopacity="1.0"
     inkscape:pageopacity="0.0"
     inkscape:pageshadow="2"
     inkscape:zoom="5.6"
     inkscape:cx="40.419563"
     inkscape:cy="18.280637"
     inkscape:document-units="mm"
     inkscape:current-layer="layer1"
     showgrid="true"
     inkscape:snap-global="false"
     inkscape:window-width="2732"
     inkscape:window-height="1491"
     inkscape:window-x="6387"
     inkscape:window-y="-13"
     inkscape:window-maximized="1"
     fit-margin-top="0"
     fit-margin-left="0"
     fit-margin-right="0"
     fit-margin-bottom="0">
    <inkscape:grid
       type="xygrid"
       id="grid912"
       originx="-153.29294"
       originy="-129.30299" />
  </sodipodi:namedview>
  <metadata
     id="metadata5">
    <rdf:RDF>
      <cc:Work
         rdf:about="">
        <dc:format>image/svg+xml</dc:format>
        <dc:type
           rdf:resource="http://purl.org/dc/dcmitype/StillImage" />
        <dc:title></dc:title>
      </cc:Work>
    </rdf:RDF>
  </metadata>
  <g
     inkscape:label="Layer 1"
     inkscape:groupmode="layer"
     id="layer1"
     transform="translate(-153.29294,-144.52093)">
    <path
       style="opacity:1;fill:#784421;fill-opacity:1;stroke:none;stroke-width:0.26458332px;stroke-linecap:butt;stroke-linejoin:miter;stroke-opacity:1"
       d="m 158.4925,158.80246 c 0.67166,0.67166 4.17455,-0.16755 6.87208,0.61421 0.79375,2.64583 0.26458,5.29166 -0.52917,7.9375 1.93111,0.52907 3.53439,0.37906 5.02709,0 -0.79375,-2.64584 -1.32292,-5.29167 -0.52917,-7.9375 2.93389,-0.9076 6.9065,-0.11238 7.40833,-0.61421 0.50183,-0.50183 3.2e-4,-2.03169 0,-3.35454 -2.1e-4,-0.88194 -1.05833,-0.88194 -1.05833,0 v 1.32291 c -2.29787,0.704 -15.97919,0.29356 -16.28605,0 -0.30686,-0.29356 -0.14399,-1.41529 -0.0167,-2.12919 0.98116,-0.40735 3.12442,-0.70851 4.24733,-0.40088 v -2.76159 c 0,-0.44097 -0.90916,-0.44097 -0.90916,0 v 1.48827 c -2.20486,0 -5.50864,1.07255 -6.21298,-0.18896 -0.70435,-1.26153 -0.61639,-3.55294 0.10358,-4.61657 0.71997,-1.06363 5.25429,-0.0798 5.82592,-0.65147 0.57163,-0.57163 0.30536,-1.76876 0.28348,-2.64584 -0.011,-0.44083 -0.74122,-0.44096 -0.73827,0 0.003,0.44097 -0.0354,1.26868 -0.35365,1.48996 -0.31829,0.22128 -7.03727,0.17303 -7.29205,0 -0.25479,-0.17303 -0.25343,-0.33145 -0.25343,-0.73401 0,-0.44097 -0.78841,-0.44098 -0.78841,0 0,0.85864 0.017,1.17107 0.43469,1.63003 0.4177,0.45896 1.22269,0.36033 1.657,0.33527 -1.21905,1.28588 -0.8242,4.98857 -0.18382,6.09774 0.64038,1.10916 2.32802,1.22535 3.02002,1.1627 -0.0443,0.45181 -0.45769,3.13005 0.27167,3.95617 z"
       id="path850-6-6-0"
       inkscape:connector-curvature="0"
       sodipodi:nodetypes="ccccczssczccssczzzsszzsszczcc" />
    <path
       style="fill:#007800;fill-opacity:1;stroke:none;stroke-width:0.28096125px;stroke-linecap:butt;stroke-linejoin:miter;stroke-opacity:1"
       d="m 177.3277,153.78523 c 3.17828,0.72618 3.19629,-2.86847 3.73988,-5.11356 -2.27846,0.80544 -5.84165,2.09693 -4.00657,4.85267 0.96121,-1.55311 1.44397,-2.26999 2.66961,-3.30002 -1.00255,1.29063 -1.17356,1.67675 -2.40291,3.56093 z"
       id="path4652-2-0-0-7"
       inkscape:connector-curvature="0"
       sodipodi:nodetypes="cccccc"
       inkscape:transform-center-y="-2.4235823"
       inkscape:transform-center-x="-1.6522641" />
    <path
       style="fill:#007800;fill-opacity:1;stroke:none;stroke-width:0.47964606px;stroke-linecap:butt;stroke-linejoin:miter;stroke-opacity:1"
       d="m 174.83492,153.82467 c -5.3137,0.95436 -5.2659,-5.32759 -6.12339,-9.30374 3.78057,1.63254 9.6922,4.2413 6.57361,8.87432 -1.56867,-2.8085 -2.35787,-4.10868 -4.37862,-6.02947 1.64325,2.35401 1.91992,3.04549 3.92839,6.45892 z"
       id="path4652-2-0-6-1-7"
       inkscape:connector-curvature="0"
       sodipodi:nodetypes="cccccc"
       inkscape:transform-center-y="-4.4704023"
       inkscape:transform-center-x="2.6821556" />
  </g>
</svg>
